# xmcd
#
# Track frame offsets: 
#        182
#        20032
#        31425
#        42887
#        54142
#        65112
#        76687
#        88422
#        100182
#        112325
#
# Disc length: 1669 seconds
#
# Revision: 5
# Processed by: cddbd v1.5.2PL0 Copyright (c) Steve Scherf et al.
# Submitted via: ExactAudioCopy v0.99pb4
#
DISCID=8306830a
DTITLE=Various Artist - Country Music Classics - Volume 1 - 1950's
DYEAR=1990
DGENRE=Country
TTITLE0=Marty Robbins - El Paso
TTITLE1=Sonny James - Young Love
TTITLE2=Kitty Wells - It's Wasn't God Who Made Honky Tonk Angels
TTITLE3=Stonewall Jackson - Waterloo
TTITLE4=Ferlin Husky - Gone
TTITLE5=Johnny Horton - The Battle Of New Orleans
TTITLE6=Patsy Cline - Walking After Midnight
TTITLE7=Tennessee Ernie Ford - Sixteen Tons
TTITLE8=Johnny Cash - I Walk The Line
TTITLE9=Hank Williams - Jambalaya (On The Bayou)
EXTD=
EXTT0=
EXTT1=
EXTT2=
EXTT3=
EXTT4=
EXTT5=
EXTT6=
EXTT7=
EXTT8=
EXTT9=
PLAYORDER=
